<?xml version="1.0" encoding="UTF-8" standalone="no"?>
<!-- Created with Inkscape (http://www.inkscape.org/) -->

<svg
   style="background-color: white;"
   version="1.1"
   id="svg1"
   width="355.216"
   height="261.748"
   viewBox="0 -10 355.216 261.748"
   sodipodi:docname="crescents-time.pdf"
   xmlns:inkscape="http://www.inkscape.org/namespaces/inkscape"
   xmlns:sodipodi="http://sodipodi.sourceforge.net/DTD/sodipodi-0.dtd"
   xmlns="http://www.w3.org/2000/svg"
   xmlns:svg="http://www.w3.org/2000/svg">
  <defs
     id="defs1">
    <clipPath
       clipPathUnits="userSpaceOnUse"
       id="clipPath24">
      <path
         d="M -18.89842,0 H 207.87132 V 141.73318 H -18.89842 Z"
         id="path24" />
    </clipPath>
    <clipPath
       clipPathUnits="userSpaceOnUse"
       id="clipPath26">
      <path
         d="M -18.89842,0 H 207.87132 V 141.73318 H -18.89842 Z"
         id="path26" />
    </clipPath>
  </defs>
  <sodipodi:namedview
     id="namedview1"
     pagecolor="#505050"
     bordercolor="#eeeeee"
     borderopacity="1"
     inkscape:showpageshadow="0"
     inkscape:pageopacity="0"
     inkscape:pagecheckerboard="0"
     inkscape:deskcolor="#505050">
    <inkscape:page
       x="0"
       y="0"
       inkscape:label="1"
       id="page1"
       width="345.216"
       height="241.748"
       margin="0"
       bleed="0" />
  </sodipodi:namedview>
  <g
     id="g1"
     inkscape:groupmode="layer"
     inkscape:label="1">
    <path
       id="path1"
       d="M 0,0 H 258.912 V 181.311 H 0 Z"
       style="fill:#ffffff;fill-opacity:1;fill-rule:nonzero;stroke:none"
       transform="matrix(1.3333333,0,0,-1.3333333,0,241.748)" />
    <path
       id="path2"
       d="M -3.85658,0 V 4.25208 M 34.7093,0 V 4.25208 M 73.2752,0 V 4.25208 M 111.8411,0 V 4.25208 M 150.407,0 V 4.25208 M 188.9729,0 V 4.25208 M -3.85658,141.73318 v -4.25208 m 38.56588,4.25208 v -4.25208 m 38.5659,4.25208 v -4.25208 m 38.5659,4.25208 v -4.25208 m 38.5659,4.25208 v -4.25208 m 38.5659,4.25208 v -4.25208"
       style="fill:none;stroke:#808080;stroke-width:0.19925;stroke-linecap:butt;stroke-linejoin:miter;stroke-miterlimit:10;stroke-dasharray:none;stroke-opacity:1"
       transform="matrix(1.3333333,0,0,-1.3333333,67.792,205.72267)" />
    <path
       id="path3"
       d="m -18.89842,0 h 4.25204 m -4.25204,38.70879 h 4.25204 m -4.25204,38.7088 h 4.25204 m -4.25204,38.7088 h 4.25204"
       style="fill:none;stroke:#808080;stroke-width:0.19925;stroke-linecap:butt;stroke-linejoin:miter;stroke-miterlimit:10;stroke-dasharray:none;stroke-opacity:1"
       transform="matrix(1.3333333,0,0,-1.3333333,67.792,205.72267)" />
    <path
       id="path4"
       d="M -18.89842,0 H 207.87132"
       style="fill:none;stroke:#000000;stroke-width:0.3985;stroke-linecap:butt;stroke-linejoin:miter;stroke-miterlimit:10;stroke-dasharray:none;stroke-opacity:1"
       transform="matrix(1.3333333,0,0,-1.3333333,67.792,205.72267)" />
    <path
       id="path5"
       d="M -18.89842,141.73318 H 207.87132"
       style="fill:none;stroke:#000000;stroke-width:0.3985;stroke-linecap:butt;stroke-linejoin:miter;stroke-miterlimit:10;stroke-dasharray:none;stroke-opacity:1"
       transform="matrix(1.3333333,0,0,-1.3333333,67.792,205.72267)" />
    <path
       id="path6"
       d="M -18.89842,0 V 141.73318"
       style="fill:none;stroke:#000000;stroke-width:0.3985;stroke-linecap:butt;stroke-linejoin:miter;stroke-miterlimit:10;stroke-dasharray:none;stroke-opacity:1"
       transform="matrix(1.3333333,0,0,-1.3333333,67.792,205.72267)" />
    <path
       id="path7"
       d="m 4.582125,-3.1870781 c 0,-0.796875 -0.046875,-1.59375 -0.3984375,-2.3320313 -0.4570313,-0.9609375 -1.2773438,-1.1132812 -1.6875,-1.1132812 -0.5976563,0 -1.3359375,0.2578125 -1.734375,1.1835937 -0.328125,0.6914063 -0.375,1.4648438 -0.375,2.2617188 0,0.75 0.046875,1.640625 0.4453125,2.40234373 0.4335937,0.80859375 1.1601562,1.0078125 1.6523437,1.0078125 0.5390625,0 1.2890625,-0.2109375 1.734375,-1.16015625 C 4.53525,-1.6284844 4.582125,-2.4019219 4.582125,-3.1870781 Z M 2.4844687,4.21875e-4 c -0.3867187,0 -0.984375,-0.246093745 -1.1601562,-1.207031275 -0.1054688,-0.5976562 -0.1054688,-1.5117187 -0.1054688,-2.0976562 0,-0.6445313 0,-1.3007813 0.082031,-1.8398438 0.1875,-1.1835937 0.9257812,-1.265625 1.1835937,-1.265625 0.328125,0 0.984375,0.1757813 1.171875,1.1601563 0.09375,0.5625 0.09375,1.3125 0.09375,1.9453125 0,0.75 0,1.4179687 -0.1054687,2.0625 C 3.4922812,-0.30426562 2.9297812,4.21875e-4 2.4844687,4.21875e-4 Z m 0,0"
       style="fill:#000000;fill-opacity:1;fill-rule:nonzero;stroke:none"
       aria-label="0"
       transform="matrix(1.3333333,0,0,1.3333333,59.328,218.976)" />
    <path
       id="path8"
       d="m 2.9301875,-6.3745781 c 0,-0.234375 0,-0.2578125 -0.234375,-0.2578125 -0.609375,0.6328125 -1.4882813,0.6328125 -1.8046875,0.6328125 v 0.3164062 c 0.1992187,0 0.7851562,0 1.3007812,-0.2578125 v 5.15625003 c 0,0.3515625 -0.035156,0.48046875 -0.9257812,0.48046875 H 0.94971875 V 4.21875e-4 C 1.3012812,-0.03473437 2.15675,-0.03473437 2.5551875,-0.03473437 c 0.3984375,0 1.265625,0 1.6171875,0.035156245 V -0.30426562 H 3.8559687 c -0.9023437,0 -0.9257812,-0.1171875 -0.9257812,-0.48046875 z m 0,0"
       style="fill:#000000;fill-opacity:1;fill-rule:nonzero;stroke:none"
       aria-label="1"
       transform="matrix(1.3333333,0,0,1.3333333,110.74933,218.976)" />
    <path
       id="path9"
       d="M 1.2646016,-0.76129687 2.3192891,-1.7925469 c 1.5585937,-1.3710937 2.15625,-1.9101562 2.15625,-2.90625 0,-1.1367187 -0.9023438,-1.9335937 -2.1210938,-1.9335937 -1.125,0 -1.85156249,0.9140625 -1.85156249,1.8046875 0,0.5507812 0.4921875,0.5507812 0.52734379,0.5507812 0.1640625,0 0.515625,-0.1171875 0.515625,-0.5273437 0,-0.2578125 -0.1875,-0.515625 -0.5273438,-0.515625 -0.0820312,0 -0.10546874,0 -0.12890624,0.011719 0.22265624,-0.6445312 0.76171874,-1.0195312 1.33593754,-1.0195312 0.9140625,0 1.3359375,0.8085937 1.3359375,1.6289062 0,0.796875 -0.4921875,1.5820313 -1.0429688,2.203125 L 0.60835156,-0.36285937 C 0.50288281,-0.25739062 0.50288281,-0.23395312 0.50288281,4.21875e-4 H 4.1942891 L 4.4755391,-1.7339531 H 4.2177266 c -0.046875,0.3046875 -0.1171875,0.73828123 -0.2109375,0.89062498 -0.070312,0.0820313 -0.7265625,0.0820313 -0.9492188,0.0820313 z m 0,0"
       style="fill:#000000;fill-opacity:1;fill-rule:nonzero;stroke:none"
       aria-label="2"
       transform="matrix(1.3333333,0,0,1.3333333,162.16933,218.976)" />
    <path
       id="path10"
       d="m 2.8939141,-3.5034844 c 0.8085937,-0.2695312 1.3945312,-0.9726562 1.3945312,-1.7578125 0,-0.8203125 -0.8789062,-1.3710937 -1.8398437,-1.3710937 -1.0078125,0 -1.75781254,0.5976562 -1.75781254,1.3476562 0,0.3398438 0.2109375,0.5273438 0.50390624,0.5273438 0.3046875,0 0.5039063,-0.2226563 0.5039063,-0.515625 0,-0.4921875 -0.46875,-0.4921875 -0.609375,-0.4921875 0.3046875,-0.4921875 0.9609375,-0.6210938 1.3242187,-0.6210938 0.4101563,0 0.9492188,0.2226563 0.9492188,1.1132813 0,0.1289062 -0.011719,0.703125 -0.2695313,1.1367187 -0.3046875,0.4804688 -0.6445312,0.515625 -0.890625,0.515625 -0.082031,0.011719 -0.3164062,0.035156 -0.3867187,0.035156 -0.082031,0.011719 -0.1523438,0.023437 -0.1523438,0.1171875 0,0.1171875 0.070312,0.1171875 0.234375,0.1171875 h 0.4453125 c 0.8085938,0 1.1835938,0.6679687 1.1835938,1.6523437 0,1.34765628 -0.6914063,1.64062503 -1.125,1.64062503 -0.4335938,0 -1.171875,-0.17578125 -1.52343754,-0.76171875 0.35156254,0.0585938 0.65625004,-0.1640625 0.65625004,-0.53906248 0,-0.3632813 -0.2695313,-0.5625 -0.56250004,-0.5625 -0.234375,0 -0.55078125,0.140625 -0.55078125,0.5742187 0,0.91406253 0.92578129,1.57031253 2.00390629,1.57031253 1.21875,0 2.1210937,-0.9140625 2.1210937,-1.92187503 0,-0.8203125 -0.6210937,-1.59375 -1.6523437,-1.8046872 z m 0,0"
       style="fill:#000000;fill-opacity:1;fill-rule:nonzero;stroke:none"
       aria-label="3"
       transform="matrix(1.3333333,0,0,1.3333333,213.59067,218.976)" />
    <path
       id="path11"
       d="m 2.9304766,-1.6402031 v 0.86718748 c 0,0.3515625 -0.023437,0.46875 -0.7617188,0.46875 H 1.9578203 V 4.21875e-4 c 0.4101563,-0.035156245 0.9375,-0.035156245 1.3476563,-0.035156245 0.421875,0 0.9492187,0 1.359375,0.035156245 V -0.30426562 H 4.4539141 c -0.7382813,0 -0.7617188,-0.1171875 -0.7617188,-0.46875 V -1.6402031 H 4.6882891 V -1.9566094 H 3.6921953 v -4.5234375 c 0,-0.1992187 0,-0.2578125 -0.1523437,-0.2578125 -0.09375,0 -0.1171875,0 -0.1992188,0.1171875 l -3.05859374,4.6640625 v 0.3164063 z m 0.058594,-0.3164063 H 0.56328906 L 2.9890703,-5.6714531 Z m 0,0"
       style="fill:#000000;fill-opacity:1;fill-rule:nonzero;stroke:none"
       aria-label="4"
       transform="matrix(1.3333333,0,0,1.3333333,265.01067,218.976)" />
    <path
       id="path12"
       d="m 4.4758281,-2.0034844 c 0,-1.1835937 -0.8203125,-2.1796875 -1.8984375,-2.1796875 -0.4804687,0 -0.9023437,0.1640625 -1.265625,0.5039063 v -1.9335938 c 0.1992188,0.058594 0.5273438,0.1289063 0.84375,0.1289063 1.2304688,0 1.9335938,-0.9140625 1.9335938,-1.0429688 0,-0.058594 -0.035156,-0.1054687 -0.1054688,-0.1054687 -0.011719,0 -0.035156,0 -0.082031,0.023437 -0.1992188,0.09375 -0.6796875,0.2929687 -1.3476563,0.2929687 -0.3984375,0 -0.8554687,-0.070312 -1.3242187,-0.28125 -0.082031,-0.023437 -0.1054688,-0.023437 -0.1289063,-0.023437 -0.09375,0 -0.09375,0.082031 -0.09375,0.234375 v 2.953125 c 0,0.1757813 0,0.2578125 0.140625,0.2578125 0.070312,0 0.082031,-0.035156 0.1289063,-0.09375 0.1054687,-0.1523437 0.4804687,-0.6914062 1.2773437,-0.6914062 0.5273438,0 0.7734375,0.4570312 0.8554688,0.6328125 0.1523437,0.375 0.1757812,0.7617187 0.1757812,1.2539062 0,0.3515625 0,0.9492188 -0.234375,1.37109378 -0.2460937,0.38671875 -0.609375,0.64453125 -1.0664062,0.64453125 -0.7265625,0 -1.30078127,-0.52734375 -1.46484377,-1.11328123 0.0234375,0.011719 0.0585938,0.011719 0.1640625,0.011719 0.32812497,0 0.50390627,-0.2460937 0.50390627,-0.4804687 0,-0.2460938 -0.1757813,-0.4921875 -0.50390627,-0.4921875 -0.140625,0 -0.48046875,0.070312 -0.48046875,0.5273437 0,0.85546878 0.67968752,1.82812503 1.79296872,1.82812503 1.1601563,0 2.1796875,-0.9609375 2.1796873,-2.22656283 z m 0,0"
       style="fill:#000000;fill-opacity:1;fill-rule:nonzero;stroke:none"
       aria-label="5"
       transform="matrix(1.3333333,0,0,1.3333333,316.43067,218.976)" />
    <g
       id="g12"
       aria-label="·10&#10;4"
       transform="matrix(1.3333333,0,0,1.3333333,303.24533,241.12267)">
      <path
         id="path13"
         d="m 1.9107266,-2.4972734 c 0,-0.28125 -0.234375,-0.5273438 -0.5273438,-0.5273438 -0.28125,0 -0.52734374,0.2460938 -0.52734374,0.5273438 0,0.2929687 0.24609374,0.5390625 0.52734374,0.5390625 0.2929688,0 0.5273438,-0.2460938 0.5273438,-0.5390625 z m 0,0"
         style="fill:#000000;fill-opacity:1;fill-rule:nonzero;stroke:none" />
      <path
         id="path14"
         d="m 5.6958828,-6.3761797 c 0,-0.234375 0,-0.2578125 -0.234375,-0.2578125 -0.609375,0.6328125 -1.4882812,0.6328125 -1.8046875,0.6328125 v 0.3164063 c 0.1992188,0 0.7851563,0 1.3007813,-0.2578125 v 5.15624996 c 0,0.3515625 -0.035156,0.48046875 -0.9257813,0.48046875 H 3.7154141 v 0.3046875 c 0.3515625,-0.03515625 1.2070312,-0.03515625 1.6054687,-0.03515625 0.3984375,0 1.265625,0 1.6171875,0.03515625 v -0.3046875 H 6.6216641 c -0.9023438,0 -0.9257813,-0.1171875 -0.9257813,-0.48046875 z m 6.6357422,3.1875 c 0,-0.796875 -0.04687,-1.59375 -0.398437,-2.3320312 -0.457032,-0.9609375 -1.277344,-1.1132813 -1.6875,-1.1132813 -0.5976567,0 -1.335938,0.2578125 -1.7343755,1.1835938 -0.328125,0.6914062 -0.375,1.4648437 -0.375,2.2617187 0,0.75 0.046875,1.640625 0.4453125,2.40234376 0.4335938,0.80859375 1.1601563,1.0078125 1.652344,1.0078125 0.539062,0 1.289062,-0.2109375 1.734375,-1.16015625 0.316406,-0.69140621 0.363281,-1.46484371 0.363281,-2.25000001 z m -2.097656,3.18750001 c -0.386719,0 -0.9843752,-0.24609375 -1.1601565,-1.20703121 -0.1054687,-0.5976563 -0.1054687,-1.5117188 -0.1054687,-2.0976563 0,-0.6445312 0,-1.3007812 0.082031,-1.8398437 0.1875,-1.1835938 0.9257813,-1.265625 1.1835942,-1.265625 0.328125,0 0.984375,0.1757812 1.171875,1.1601562 0.09375,0.5625 0.09375,1.3125 0.09375,1.9453125 0,0.75 0,1.4179688 -0.105469,2.0625 -0.152344,0.93750001 -0.714844,1.24218751 -1.160156,1.24218751 z m 0,0"
         style="fill:#000000;fill-opacity:1;fill-rule:nonzero;stroke:none" />
      <path
         id="path15"
         d="m 16.421469,-4.7648516 v -0.2460937 h -0.773438 v -3.1054688 c 0,-0.1523437 0,-0.1992187 -0.152343,-0.1992187 -0.09375,0 -0.117188,0 -0.1875,0.09375 l -2.308594,3.2109375 v 0.2460937 h 2.050781 v 0.5742188 c 0,0.234375 0,0.328125 -0.5625,0.328125 h -0.1875 v 0.2460937 c 0.351563,-0.011719 0.796875,-0.023437 1.042969,-0.023437 0.257812,0 0.703125,0.011719 1.054687,0.023437 v -0.2460937 h -0.1875 c -0.5625,0 -0.5625,-0.09375 -0.5625,-0.328125 V -4.7648516 Z M 15.09725,-7.5656328 v 2.5546875 h -1.839844 z m 0,0"
         style="fill:#000000;fill-opacity:1;fill-rule:nonzero;stroke:none" />
    </g>
    <path
       id="path16"
       d="m 4.5813906,-3.1865703 c 0,-0.796875 -0.046875,-1.59375 -0.3984375,-2.3320313 -0.4570312,-0.9609375 -1.2773437,-1.1132812 -1.6875,-1.1132812 -0.5976562,0 -1.3359375,0.2578125 -1.73437498,1.1835937 -0.328125,0.6914063 -0.375,1.4648438 -0.375,2.2617188 0,0.75 0.046875,1.640625 0.4453125,2.40234374 0.43359378,0.80859375 1.16015628,1.0078125 1.65234378,1.0078125 0.5390625,0 1.2890625,-0.2109375 1.734375,-1.16015625 C 4.5345156,-1.6279766 4.5813906,-2.4014141 4.5813906,-3.1865703 Z M 2.4837344,9.296875e-4 c -0.3867188,0 -0.984375,-0.2460937475 -1.1601563,-1.2070312875 -0.1054687,-0.5976562 -0.1054687,-1.5117187 -0.1054687,-2.0976562 0,-0.6445313 0,-1.3007813 0.082031,-1.8398438 0.1875,-1.1835937 0.9257813,-1.265625 1.1835938,-1.265625 0.328125,0 0.984375,0.1757813 1.171875,1.1601563 0.09375,0.5625 0.09375,1.3125 0.09375,1.9453125 0,0.75 0,1.4179687 -0.1054688,2.0625 C 3.4915469,-0.30375781 2.9290469,9.296875e-4 2.4837344,9.296875e-4 Z m 0,0"
       style="fill:#000000;fill-opacity:1;fill-rule:nonzero;stroke:none"
       aria-label="0"
       transform="matrix(1.3333333,0,0,1.3333333,31.258667,210.00267)" />
    <path
       id="path17"
       d="m 2.9290469,-6.3760312 c 0,-0.234375 0,-0.2578125 -0.234375,-0.2578125 -0.609375,0.6328125 -1.4882813,0.6328125 -1.80468753,0.6328125 v 0.3164062 c 0.19921873,0 0.78515623,0 1.30078123,-0.2578125 v 5.15625 c 0,0.3515625 -0.035156,0.48046875 -0.9257812,0.48046875 H 0.94857812 v 0.3046875 C 1.3001406,-0.0361875 2.1556094,-0.0361875 2.5540469,-0.0361875 c 0.3984375,0 1.265625,0 1.6171875,0.03515625 v -0.3046875 H 3.8548281 c -0.9023437,0 -0.9257812,-0.1171875 -0.9257812,-0.48046875 z m 0,0"
       style="fill:#000000;fill-opacity:1;fill-rule:nonzero;stroke:none"
       aria-label="1"
       transform="matrix(1.3333333,0,0,1.3333333,31.258667,158.392)" />
    <path
       id="path18"
       d="M 1.2649844,-0.76078125 2.3196719,-1.7920313 c 1.5585937,-1.3710937 2.15625,-1.9101562 2.15625,-2.90625 0,-1.1367187 -0.9023438,-1.9335937 -2.1210938,-1.9335937 -1.125,0 -1.85156248,0.9140625 -1.85156248,1.8046875 0,0.5507812 0.4921875,0.5507812 0.52734378,0.5507812 0.1640625,0 0.515625,-0.1171875 0.515625,-0.5273437 0,-0.2578125 -0.1875,-0.515625 -0.5273438,-0.515625 -0.0820312,0 -0.10546873,0 -0.12890623,0.011719 0.22265623,-0.6445312 0.76171873,-1.0195312 1.33593753,-1.0195312 0.9140625,0 1.3359375,0.8085937 1.3359375,1.6289062 0,0.796875 -0.4921875,1.5820313 -1.0429688,2.203125 L 0.60873437,-0.36234375 C 0.50326562,-0.256875 0.50326562,-0.2334375 0.50326562,9.375e-4 H 4.1946719 l 0.28125,-1.734375 H 4.2181094 c -0.046875,0.3046875 -0.1171875,0.73828125 -0.2109375,0.890625 -0.070313,0.0820313 -0.7265625,0.0820313 -0.9492188,0.0820313 z m 0,0"
       style="fill:#000000;fill-opacity:1;fill-rule:nonzero;stroke:none"
       aria-label="2"
       transform="matrix(1.3333333,0,0,1.3333333,31.258667,106.78)" />
    <path
       id="path19"
       d="m 2.8938906,-3.5049297 c 0.8085938,-0.2695312 1.3945313,-0.9726562 1.3945313,-1.7578125 0,-0.8203125 -0.8789063,-1.3710937 -1.8398438,-1.3710937 -1.0078125,0 -1.75781248,0.5976562 -1.75781248,1.3476562 0,0.3398438 0.2109375,0.5273438 0.50390628,0.5273438 0.3046875,0 0.5039062,-0.2226563 0.5039062,-0.515625 0,-0.4921875 -0.46875,-0.4921875 -0.609375,-0.4921875 0.3046875,-0.4921875 0.9609375,-0.6210938 1.3242188,-0.6210938 0.4101562,0 0.9492187,0.2226563 0.9492187,1.1132813 0,0.1289062 -0.011719,0.703125 -0.2695312,1.1367187 -0.3046875,0.4804688 -0.6445313,0.515625 -0.890625,0.515625 -0.082031,0.011719 -0.3164063,0.035156 -0.3867188,0.035156 -0.082031,0.011719 -0.1523437,0.023437 -0.1523437,0.1171875 0,0.1171875 0.070312,0.1171875 0.234375,0.1171875 h 0.4453125 c 0.8085937,0 1.1835937,0.6679687 1.1835937,1.6523437 0,1.34765626 -0.6914062,1.64062501 -1.125,1.64062501 -0.4335937,0 -1.171875,-0.17578125 -1.52343748,-0.76171875 0.35156248,0.0585938 0.65624998,-0.1640625 0.65624998,-0.53906246 0,-0.3632813 -0.2695312,-0.5625 -0.56249998,-0.5625 -0.234375,0 -0.55078125,0.140625 -0.55078125,0.5742187 0,0.91406251 0.92578123,1.57031251 2.00390623,1.57031251 1.21875,0 2.1210938,-0.9140625 2.1210938,-1.92187501 0,-0.8203125 -0.6210938,-1.59375 -1.6523438,-1.8046872 z m 0,0"
       style="fill:#000000;fill-opacity:1;fill-rule:nonzero;stroke:none"
       aria-label="3"
       transform="matrix(1.3333333,0,0,1.3333333,31.258667,55.169333)" />
    <g
       id="g19"
       aria-label="·10&#10;5"
       transform="matrix(1.3333333,0,0,1.3333333,46.844,10.812)">
      <path
         id="path20"
         d="m 1.9099687,-2.4957188 c 0,-0.28125 -0.234375,-0.5273437 -0.5273437,-0.5273437 -0.28125,0 -0.52734375,0.2460937 -0.52734375,0.5273437 0,0.2929688 0.24609375,0.5390625 0.52734375,0.5390625 0.2929687,0 0.5273437,-0.2460937 0.5273437,-0.5390625 z m 0,0"
         style="fill:#000000;fill-opacity:1;fill-rule:nonzero;stroke:none" />
      <path
         id="path21"
         d="m 5.6980547,-6.374625 c 0,-0.234375 0,-0.2578125 -0.234375,-0.2578125 -0.609375,0.6328125 -1.4882813,0.6328125 -1.8046875,0.6328125 v 0.3164062 c 0.1992187,0 0.7851562,0 1.3007812,-0.2578125 v 5.15625005 c 0,0.3515625 -0.035156,0.48046875 -0.9257812,0.48046875 H 3.7175859 V 3.75e-4 c 0.3515625,-0.03515625 1.2070313,-0.03515625 1.6054688,-0.03515625 0.3984375,0 1.265625,0 1.6171875,0.03515625 V -0.3043125 H 6.6238359 c -0.9023437,0 -0.9257812,-0.1171875 -0.9257812,-0.48046875 z m 6.6328123,3.1875 c 0,-0.796875 -0.04687,-1.59375 -0.398437,-2.3320313 -0.457032,-0.9609375 -1.277344,-1.1132812 -1.6875,-1.1132812 -0.5976566,0 -1.3359378,0.2578125 -1.7343753,1.1835937 -0.328125,0.6914063 -0.375,1.4648438 -0.375,2.2617188 0,0.75 0.046875,1.640625 0.4453125,2.40234375 0.4335937,0.80859375 1.1601562,1.0078125 1.6523438,1.0078125 0.539062,0 1.289062,-0.2109375 1.734375,-1.16015625 0.316406,-0.6914063 0.363281,-1.4648438 0.363281,-2.25 z m -2.097656,3.1875 c -0.3867188,0 -0.9843751,-0.24609375 -1.1601563,-1.2070313 -0.1054688,-0.5976562 -0.1054688,-1.5117187 -0.1054688,-2.0976562 0,-0.6445313 0,-1.3007813 0.082031,-1.8398438 0.1875,-1.1835937 0.9257812,-1.265625 1.1835941,-1.265625 0.328125,0 0.984375,0.1757813 1.171875,1.1601563 0.09375,0.5625 0.09375,1.3125 0.09375,1.9453125 0,0.75 0,1.4179687 -0.105469,2.0625 -0.152344,0.9375 -0.714844,1.2421875 -1.160156,1.2421875 z m 0,0"
         style="fill:#000000;fill-opacity:1;fill-rule:nonzero;stroke:none" />
      <path
         id="path22"
         d="m 13.810359,-7.5054844 c 0.363282,0.09375 0.5625,0.09375 0.679688,0.09375 0.914062,0 1.464844,-0.6328125 1.464844,-0.7382812 0,-0.070312 -0.04687,-0.09375 -0.08203,-0.09375 -0.01172,0 -0.03516,0 -0.05859,0.023437 -0.164063,0.058594 -0.539063,0.1992187 -1.054688,0.1992187 -0.199219,0 -0.5625,-0.011719 -1.019531,-0.1875 -0.07031,-0.035156 -0.08203,-0.035156 -0.08203,-0.035156 -0.09375,0 -0.09375,0.070312 -0.09375,0.1875 v 2.0625 c 0,0.1171875 0,0.1992187 0.105468,0.1992187 0.07031,0 0.07031,-0.011719 0.140625,-0.1054687 0.304688,-0.375 0.726563,-0.4335938 0.972657,-0.4335938 0.421875,0 0.609375,0.3398438 0.644531,0.3867188 0.117187,0.234375 0.164062,0.5039062 0.164062,0.9023437 0,0.2109375 0,0.6210938 -0.210937,0.9257813 -0.175781,0.2578125 -0.46875,0.421875 -0.820313,0.421875 -0.445312,0 -0.914062,-0.2578125 -1.089843,-0.7148438 0.269531,0.023437 0.398437,-0.1523437 0.398437,-0.3398437 0,-0.3046875 -0.257812,-0.3515625 -0.351562,-0.3515625 -0.01172,0 -0.351563,0 -0.351563,0.375 0,0.6210937 0.574219,1.2539062 1.417969,1.2539062 0.890625,0 1.664062,-0.6679687 1.664062,-1.546875 0,-0.7851562 -0.597656,-1.5117187 -1.453125,-1.5117187 -0.316406,0 -0.679687,0.082031 -0.984375,0.3398437 z m 0,0"
         style="fill:#000000;fill-opacity:1;fill-rule:nonzero;stroke:none" />
    </g>
    <path
       id="path23"
       d="m 0,0.04605 3.85658,0.12813 11.56977,0.92708 19.28295,3.48106 38.5659,13.88526 38.5659,26.65989 38.5659,35.40074 38.5659,48.31942"
       style="fill:none;stroke:#000000;stroke-width:0.3985;stroke-linecap:butt;stroke-linejoin:miter;stroke-miterlimit:10;stroke-dasharray:none;stroke-opacity:1"
       transform="matrix(1.3333333,0,0,-1.3333333,67.792,205.72267)"
       clip-path="url(#clipPath24)" />
    <path
       id="path25"
       d="M 0,0.03792 3.85658,0.0716 15.42635,0.17883 34.7093,0.35805 73.2752,0.74088 111.8411,1.31685 150.407,1.65091 188.9729,1.9629"
       style="fill:none;stroke:#000000;stroke-width:0.3985;stroke-linecap:butt;stroke-linejoin:miter;stroke-miterlimit:10;stroke-dasharray:none;stroke-opacity:1"
       transform="matrix(1.3333333,0,0,-1.3333333,67.792,205.72267)"
       clip-path="url(#clipPath26)" />
    <path
       id="path27"
       d="M 1.99255,0.04605 C 1.99255,1.14653 1.10046,2.0386 0,2.0386 c -1.10046,0 -1.99255,-0.89207 -1.99255,-1.99255 0,-1.10045 0.89209,-1.99254 1.99255,-1.99254 1.10046,0 1.99255,0.89209 1.99255,1.99254 z"
       style="fill:#000000;fill-opacity:1;fill-rule:nonzero;stroke:#000000;stroke-width:0.3985;stroke-linecap:butt;stroke-linejoin:miter;stroke-miterlimit:10;stroke-dasharray:none;stroke-opacity:1"
       transform="matrix(1.3333333,0,0,-1.3333333,67.792,205.72267)" />
    <path
       id="path28"
       d="m 5.84914,0.17418 c 0,1.10046 -0.89209,1.99255 -1.99256,1.99255 -1.10048,0 -1.99255,-0.89209 -1.99255,-1.99255 0,-1.10046 0.89207,-1.99254 1.99255,-1.99254 1.10047,0 1.99256,0.89208 1.99256,1.99254 z"
       style="fill:#000000;fill-opacity:1;fill-rule:nonzero;stroke:#000000;stroke-width:0.3985;stroke-linecap:butt;stroke-linejoin:miter;stroke-miterlimit:10;stroke-dasharray:none;stroke-opacity:1"
       transform="matrix(1.3333333,0,0,-1.3333333,67.792,205.72267)" />
    <path
       id="path29"
       d="m 17.4189,1.10126 c 0,1.10046 -0.89208,1.99255 -1.99255,1.99255 -1.10047,0 -1.99256,-0.89209 -1.99256,-1.99255 0,-1.10048 0.89209,-1.99254 1.99256,-1.99254 1.10047,0 1.99255,0.89206 1.99255,1.99254 z"
       style="fill:#000000;fill-opacity:1;fill-rule:nonzero;stroke:#000000;stroke-width:0.3985;stroke-linecap:butt;stroke-linejoin:miter;stroke-miterlimit:10;stroke-dasharray:none;stroke-opacity:1"
       transform="matrix(1.3333333,0,0,-1.3333333,67.792,205.72267)" />
    <path
       id="path30"
       d="m 36.70186,4.58232 c 0,1.10048 -0.89209,1.99255 -1.99256,1.99255 -1.10047,0 -1.99255,-0.89207 -1.99255,-1.99255 0,-1.10046 0.89208,-1.99255 1.99255,-1.99255 1.10047,0 1.99256,0.89209 1.99256,1.99255 z"
       style="fill:#000000;fill-opacity:1;fill-rule:nonzero;stroke:#000000;stroke-width:0.3985;stroke-linecap:butt;stroke-linejoin:miter;stroke-miterlimit:10;stroke-dasharray:none;stroke-opacity:1"
       transform="matrix(1.3333333,0,0,-1.3333333,67.792,205.72267)" />
    <path
       id="path31"
       d="m 75.26776,18.46758 c 0,1.10046 -0.89209,1.99255 -1.99256,1.99255 -1.10047,0 -1.99255,-0.89209 -1.99255,-1.99255 0,-1.10048 0.89208,-1.99256 1.99255,-1.99256 1.10047,0 1.99256,0.89208 1.99256,1.99256 z"
       style="fill:#000000;fill-opacity:1;fill-rule:nonzero;stroke:#000000;stroke-width:0.3985;stroke-linecap:butt;stroke-linejoin:miter;stroke-miterlimit:10;stroke-dasharray:none;stroke-opacity:1"
       transform="matrix(1.3333333,0,0,-1.3333333,67.792,205.72267)" />
    <path
       id="path32"
       d="m 113.83365,45.12747 c 0,1.10048 -0.89208,1.99256 -1.99255,1.99256 -1.10047,0 -1.99256,-0.89208 -1.99256,-1.99256 0,-1.10046 0.89209,-1.99255 1.99256,-1.99255 1.10047,0 1.99255,0.89209 1.99255,1.99255 z"
       style="fill:#000000;fill-opacity:1;fill-rule:nonzero;stroke:#000000;stroke-width:0.3985;stroke-linecap:butt;stroke-linejoin:miter;stroke-miterlimit:10;stroke-dasharray:none;stroke-opacity:1"
       transform="matrix(1.3333333,0,0,-1.3333333,67.792,205.72267)" />
    <path
       id="path33"
       d="m 152.39955,80.52821 c 0,1.10049 -0.89207,1.99256 -1.99255,1.99256 -1.10047,0 -1.99256,-0.89207 -1.99256,-1.99256 0,-1.10046 0.89209,-1.99255 1.99256,-1.99255 1.10048,0 1.99255,0.89209 1.99255,1.99255 z"
       style="fill:#000000;fill-opacity:1;fill-rule:nonzero;stroke:#000000;stroke-width:0.3985;stroke-linecap:butt;stroke-linejoin:miter;stroke-miterlimit:10;stroke-dasharray:none;stroke-opacity:1"
       transform="matrix(1.3333333,0,0,-1.3333333,67.792,205.72267)" />
    <path
       id="path34"
       d="m 190.96545,128.84763 c 0,1.10047 -0.89209,1.99255 -1.99255,1.99255 -1.10048,0 -1.99255,-0.89208 -1.99255,-1.99255 0,-1.10047 0.89207,-1.99256 1.99255,-1.99256 1.10046,0 1.99255,0.89209 1.99255,1.99256 z"
       style="fill:#000000;fill-opacity:1;fill-rule:nonzero;stroke:#000000;stroke-width:0.3985;stroke-linecap:butt;stroke-linejoin:miter;stroke-miterlimit:10;stroke-dasharray:none;stroke-opacity:1"
       transform="matrix(1.3333333,0,0,-1.3333333,67.792,205.72267)" />
    <path
       id="path35"
       d="M 1.99255,0.03792 C 1.99255,1.1384 1.10046,2.03047 0,2.03047 c -1.10046,0 -1.99255,-0.89207 -1.99255,-1.99255 0,-1.10045 0.89209,-1.99254 1.99255,-1.99254 1.10046,0 1.99255,0.89209 1.99255,1.99254 z"
       style="fill:none;stroke:#000000;stroke-width:0.3985;stroke-linecap:butt;stroke-linejoin:miter;stroke-miterlimit:10;stroke-dasharray:none;stroke-opacity:1"
       transform="matrix(1.3333333,0,0,-1.3333333,67.792,205.72267)" />
    <path
       id="path36"
       d="m 5.84914,0.0716 c 0,1.10046 -0.89209,1.99255 -1.99256,1.99255 -1.10048,0 -1.99255,-0.89209 -1.99255,-1.99255 0,-1.10047 0.89207,-1.99254 1.99255,-1.99254 1.10047,0 1.99256,0.89207 1.99256,1.99254 z"
       style="fill:none;stroke:#000000;stroke-width:0.3985;stroke-linecap:butt;stroke-linejoin:miter;stroke-miterlimit:10;stroke-dasharray:none;stroke-opacity:1"
       transform="matrix(1.3333333,0,0,-1.3333333,67.792,205.72267)" />
    <path
       id="path37"
       d="m 17.4189,0.17883 c 0,1.10047 -0.89208,1.99256 -1.99255,1.99256 -1.10047,0 -1.99256,-0.89209 -1.99256,-1.99256 0,-1.10046 0.89209,-1.99253 1.99256,-1.99253 1.10047,0 1.99255,0.89207 1.99255,1.99253 z"
       style="fill:none;stroke:#000000;stroke-width:0.3985;stroke-linecap:butt;stroke-linejoin:miter;stroke-miterlimit:10;stroke-dasharray:none;stroke-opacity:1"
       transform="matrix(1.3333333,0,0,-1.3333333,67.792,205.72267)" />
    <path
       id="path38"
       d="m 36.70186,0.35805 c 0,1.10046 -0.89209,1.99255 -1.99256,1.99255 -1.10047,0 -1.99255,-0.89209 -1.99255,-1.99255 0,-1.10047 0.89208,-1.99254 1.99255,-1.99254 1.10047,0 1.99256,0.89207 1.99256,1.99254 z"
       style="fill:none;stroke:#000000;stroke-width:0.3985;stroke-linecap:butt;stroke-linejoin:miter;stroke-miterlimit:10;stroke-dasharray:none;stroke-opacity:1"
       transform="matrix(1.3333333,0,0,-1.3333333,67.792,205.72267)" />
    <path
       id="path39"
       d="m 75.26776,0.74088 c 0,1.10047 -0.89209,1.99255 -1.99256,1.99255 -1.10047,0 -1.99255,-0.89208 -1.99255,-1.99255 0,-1.10045 0.89208,-1.99254 1.99255,-1.99254 1.10047,0 1.99256,0.89209 1.99256,1.99254 z"
       style="fill:none;stroke:#000000;stroke-width:0.3985;stroke-linecap:butt;stroke-linejoin:miter;stroke-miterlimit:10;stroke-dasharray:none;stroke-opacity:1"
       transform="matrix(1.3333333,0,0,-1.3333333,67.792,205.72267)" />
    <path
       id="path40"
       d="m 113.83365,1.31685 c 0,1.10046 -0.89208,1.99255 -1.99255,1.99255 -1.10047,0 -1.99256,-0.89209 -1.99256,-1.99255 0,-1.10047 0.89209,-1.99254 1.99256,-1.99254 1.10047,0 1.99255,0.89207 1.99255,1.99254 z"
       style="fill:none;stroke:#000000;stroke-width:0.3985;stroke-linecap:butt;stroke-linejoin:miter;stroke-miterlimit:10;stroke-dasharray:none;stroke-opacity:1"
       transform="matrix(1.3333333,0,0,-1.3333333,67.792,205.72267)" />
    <path
       id="path41"
       d="m 152.39955,1.65091 c 0,1.10048 -0.89207,1.99255 -1.99255,1.99255 -1.10047,0 -1.99256,-0.89207 -1.99256,-1.99255 0,-1.10046 0.89209,-1.99254 1.99256,-1.99254 1.10048,0 1.99255,0.89208 1.99255,1.99254 z"
       style="fill:none;stroke:#000000;stroke-width:0.3985;stroke-linecap:butt;stroke-linejoin:miter;stroke-miterlimit:10;stroke-dasharray:none;stroke-opacity:1"
       transform="matrix(1.3333333,0,0,-1.3333333,67.792,205.72267)" />
    <path
       id="path42"
       d="m 190.96545,1.9629 c 0,1.10047 -0.89209,1.99256 -1.99255,1.99256 -1.10048,0 -1.99255,-0.89209 -1.99255,-1.99256 0,-1.10047 0.89207,-1.99253 1.99255,-1.99253 1.10046,0 1.99255,0.89206 1.99255,1.99253 z"
       style="fill:none;stroke:#000000;stroke-width:0.3985;stroke-linecap:butt;stroke-linejoin:miter;stroke-miterlimit:10;stroke-dasharray:none;stroke-opacity:1"
       transform="matrix(1.3333333,0,0,-1.3333333,67.792,205.72267)" />
    <path
       id="path43"
       d="m 3.7842344,-0.55154688 v 0.65625 L 5.2490781,-7.65625e-4 V -0.30545313 c -0.703125,0 -0.7734375,-0.0703125 -0.7734375,-0.5625 V -6.9148281 l -1.4414062,0.1054687 v 0.3164063 c 0.703125,0 0.7851562,0.070312 0.7851562,0.5507812 v 2.15625 c -0.2929687,-0.3632812 -0.7265625,-0.6210937 -1.265625,-0.6210937 -1.171875,0 -2.21484372,0.984375 -2.21484372,2.2617187 0,1.26562502 0.97265622,2.25000002 2.10937502,2.25000002 0.6445312,0 1.0898437,-0.33984375 1.3359375,-0.65625 z m 0,-2.67187502 v 2.0507813 c 0,0.17578122 0,0.19921872 -0.1054688,0.36328122 -0.3046875,0.48046875 -0.75,0.703125 -1.1835937,0.703125 -0.4453125,0 -0.796875,-0.2578125 -1.0429688,-0.64453125 C 1.1943906,-1.1609219 1.1592344,-1.7234219 1.1592344,-2.1335781 c 0,-0.3632813 0.023437,-0.9609375 0.3164062,-1.4179688 0.2109375,-0.3046875 0.5859375,-0.6328125 1.125,-0.6328125 0.3515625,0 0.7617188,0.1523438 1.078125,0.5976563 0.1054688,0.1640625 0.1054688,0.1875 0.1054688,0.3632812 z m 5.0683594,2.46093752 c 0.035156,0.3984375 0.3046875,0.8203125 0.7734375,0.8203125 0.2109375,0 0.8203127,-0.140625 0.8203127,-0.94921875 V -1.4421719 H 10.20025 v 0.55078127 c 0,0.5859375 -0.2460937,0.64453125 -0.3632812,0.64453125 -0.328125,0 -0.3632813,-0.45703125 -0.3632813,-0.50390625 V -2.7429531 c 0,-0.4101563 0,-0.8085938 -0.3632812,-1.171875 C 8.7236875,-4.3015469 8.2315,-4.4656094 7.7510313,-4.4656094 c -0.8203125,0 -1.5117188,0.46875 -1.5117188,1.125 0,0.3046875 0.1992188,0.46875 0.4570313,0.46875 0.28125,0 0.46875,-0.1992187 0.46875,-0.4570312 0,-0.1171875 -0.058594,-0.4453125 -0.515625,-0.4570313 0.2695312,-0.3515625 0.7617187,-0.4570312 1.078125,-0.4570312 0.4921875,0 1.0546875,0.3867187 1.0546875,1.2773437 v 0.3632813 c -0.5039063,0.035156 -1.2070313,0.058594 -1.828125,0.3632812 -0.75,0.3398438 -0.9960938,0.8554688 -0.9960938,1.28906252 0,0.80859375 0.9609375,1.0546875 1.59375,1.0546875 0.65625,0 1.1132813,-0.3984375 1.3007813,-0.8671875 z M 8.7822813,-2.3913906 v 0.9960937 c 0,0.94921877 -0.7148438,1.28906252 -1.1601563,1.28906252 -0.4921875,0 -0.9023437,-0.3515625 -0.9023437,-0.85546875 0,-0.53906247 0.421875,-1.37109377 2.0625,-1.42968747 z m 3.4570317,-1.59375 H 13.669 v -0.3046875 h -1.429687 v -1.8398438 h -0.246094 c -0.01172,0.8203125 -0.316406,1.8867188 -1.289063,1.921875 v 0.2226563 h 0.84375 v 2.7539062 c 0,1.21875002 0.925782,1.33593752 1.289063,1.33593752 0.703125,0 0.984375,-0.703125 0.984375,-1.33593752 V -1.8054531 H 13.57525 v 0.5507812 c 0,0.73828127 -0.304687,1.11328127 -0.667969,1.11328127 -0.667968,0 -0.667968,-0.90234377 -0.667968,-1.07812497 z m 5.466796,3.22265622 c 0.03516,0.3984375 0.304688,0.8203125 0.773438,0.8203125 0.210937,0 0.820312,-0.140625 0.820312,-0.94921875 V -1.4421719 h -0.246093 v 0.55078127 c 0,0.5859375 -0.246094,0.64453125 -0.363282,0.64453125 -0.328125,0 -0.363281,-0.45703125 -0.363281,-0.50390625 V -2.7429531 c 0,-0.4101563 0,-0.8085938 -0.363281,-1.171875 -0.386719,-0.3867188 -0.878906,-0.5507813 -1.359375,-0.5507813 -0.820313,0 -1.511719,0.46875 -1.511719,1.125 0,0.3046875 0.199219,0.46875 0.457031,0.46875 0.28125,0 0.46875,-0.1992187 0.46875,-0.4570312 0,-0.1171875 -0.05859,-0.4453125 -0.515625,-0.4570313 0.269532,-0.3515625 0.761719,-0.4570312 1.078125,-0.4570312 0.492188,0 1.054688,0.3867187 1.054688,1.2773437 v 0.3632813 c -0.503906,0.035156 -1.207031,0.058594 -1.828125,0.3632812 -0.75,0.3398438 -0.996094,0.8554688 -0.996094,1.28906252 0,0.80859375 0.960938,1.0546875 1.59375,1.0546875 0.65625,0 1.113281,-0.3984375 1.300781,-0.8671875 z m -0.07031,-1.62890622 v 0.9960937 c 0,0.94921877 -0.714844,1.28906252 -1.160156,1.28906252 -0.492188,0 -0.902344,-0.3515625 -0.902344,-0.85546875 0,-0.53906247 0.421875,-1.37109377 2.0625,-1.42968747 z m 7.12793,0.4570312 c 0.222656,0.035156 1.03125,0.1992188 1.03125,0.9140625 0,0.51562502 -0.351563,0.91406252 -1.125,0.91406252 -0.832032,0 -1.195313,-0.57421875 -1.382813,-1.41796872 -0.03516,-0.1289063 -0.03516,-0.1757813 -0.140625,-0.1757813 -0.128906,0 -0.128906,0.070312 -0.128906,0.2578125 v 1.31250002 c 0,0.1640625 0,0.234375 0.105469,0.234375 0.05859,0 0.07031,0 0.257812,-0.19921875 0.01172,-0.01171875 0.01172,-0.03515625 0.199219,-0.22265625 0.433594,0.421875 0.878906,0.421875 1.089844,0.421875 1.148437,0 1.605468,-0.66796875 1.605468,-1.38281252 0,-0.5273437 -0.292968,-0.8203125 -0.421875,-0.9492187 -0.328125,-0.3164063 -0.714843,-0.3984375 -1.136718,-0.46875 -0.550782,-0.1171875 -1.21875,-0.2460938 -1.21875,-0.8203125 0,-0.3515625 0.257812,-0.7617188 1.113281,-0.7617188 1.101562,0 1.148437,0.9023438 1.171875,1.2070313 0,0.09375 0.09375,0.09375 0.117187,0.09375 0.128907,0 0.128907,-0.046875 0.128907,-0.2460938 v -0.9960937 c 0,-0.1757813 0,-0.2460938 -0.117188,-0.2460938 -0.04687,0 -0.07031,0 -0.199219,0.1171875 -0.02344,0.046875 -0.128906,0.1289063 -0.164062,0.1640625 -0.375,-0.28125 -0.785156,-0.28125 -0.9375,-0.28125 -1.21875,0 -1.59375,0.6679688 -1.59375,1.2304688 0,0.3398437 0.164062,0.6210937 0.433594,0.84375 0.316406,0.2578125 0.597656,0.3164062 1.3125,0.4570312 z m 3.612304,-2.4726562 -1.394531,0.1171875 v 0.3046875 c 0.65625,0 0.738281,0.058594 0.738281,0.5507812 v 2.67187502 c 0,0.45703125 -0.105468,0.45703125 -0.773437,0.45703125 v 0.304687505 c 0.316406,-0.011718755 0.855469,-0.035156255 1.101562,-0.035156255 0.339844,0 0.691407,0.0234375 1.03125,0.035156255 V -0.30545313 c -0.65625,0 -0.703125,-0.0585938 -0.703125,-0.4453125 z m 0.04687,-1.734375 c 0,-0.3164063 -0.246093,-0.5273438 -0.527343,-0.5273438 -0.316407,0 -0.527344,0.2695313 -0.527344,0.5273438 0,0.2695312 0.210937,0.5273437 0.527344,0.5273437 0.28125,0 0.527343,-0.1992187 0.527343,-0.5273437 z m 4.854492,2.1445312 c 0.08203,-0.1054687 0.08203,-0.1289062 0.08203,-0.1640625 0,-0.1289062 -0.08203,-0.1289062 -0.257813,-0.1289062 h -3.1875 l -0.105469,1.59375 h 0.246094 c 0.05859,-1.0078125 0.246094,-1.3828125 1.347656,-1.3828125 h 1.136719 l -2.789062,3.76171872 c -0.08203,0.10546875 -0.08203,0.12890625 -0.08203,0.17578125 0,0.140625005 0.07031,0.140625005 0.257813,0.140625005 h 3.28125 L 33.382867,-1.8640469 h -0.246094 c -0.09375,1.17187502 -0.304687,1.61718752 -1.453125,1.61718752 h -1.183593 z m 1.649415,1.4882813 c 0.05859,-1.4882813 0.902343,-1.734375 1.242187,-1.734375 1.019531,0 1.125,1.3476562 1.125,1.734375 z m -0.01172,0.2109375 h 2.789062 c 0.210938,0 0.246094,0 0.246094,-0.2109375 0,-0.984375 -0.539062,-1.9570313 -1.78125,-1.9570313 -1.160156,0 -2.074219,1.03125 -2.074219,2.2734375 0,1.33593752 1.042969,2.29687502 2.191407,2.29687502 1.21875,0 1.664062,-1.1015625 1.664062,-1.28906252 0,-0.1054687 -0.08203,-0.1171875 -0.128906,-0.1171875 -0.09375,0 -0.117188,0.058594 -0.128906,0.140625 -0.351563,1.01953127 -1.253907,1.01953127 -1.347657,1.01953127 -0.503906,0 -0.902343,-0.29296875 -1.125,-0.66796875 C 34.915094,-1.2898281 34.915094,-1.9460781 34.915094,-2.2976406 Z m 0,0"
       style="fill:#000000;fill-opacity:1;fill-rule:nonzero;stroke:none"
       aria-label="datasize"
       transform="matrix(1.3333333,0,0,1.3333333,168.27467,237.32133)" />
    <path
       id="path44"
       d="M 1.7233828,-3.9850703 H 3.1530703 V -4.2897578 H 1.7233828 V -6.1296016 H 1.4772891 c -0.011719,0.8203125 -0.3164063,1.8867188 -1.28906254,1.921875 v 0.2226563 H 1.0319766 v 2.7539062 c 0,1.21875004 0.9257812,1.33593754 1.2890625,1.33593754 0.703125,0 0.984375,-0.703125 0.984375,-1.33593754 V -1.8053828 H 3.0593203 v 0.5507812 c 0,0.73828129 -0.3046875,1.11328129 -0.6679687,1.11328129 -0.6679688,0 -0.6679688,-0.90234379 -0.6679688,-1.07812499 z m 3.9082031,-0.421875 -1.3945312,0.1171875 v 0.3046875 c 0.65625,0 0.7382812,0.058594 0.7382812,0.5507812 v 2.67187504 c 0,0.45703125 -0.1054687,0.45703125 -0.7734375,0.45703125 V -6.953125e-4 C 4.5183047,-0.01241406 5.0573672,-0.03585156 5.3034609,-0.03585156 c 0.3398438,0 0.6914063,0.0234375 1.03125,0.0351562475 V -0.30538281 c -0.65625,0 -0.703125,-0.0585938 -0.703125,-0.4453125 z m 0.046875,-1.734375 c 0,-0.3164063 -0.2460937,-0.5273438 -0.5273437,-0.5273438 -0.3164063,0 -0.5273438,0.2695313 -0.5273438,0.5273438 0,0.2695312 0.2109375,0.5273437 0.5273438,0.5273437 0.28125,0 0.5273437,-0.1992187 0.5273437,-0.5273437 z m 2.0654297,2.71875 v 2.66015624 c 0,0.45703125 -0.1171875,0.45703125 -0.7851562,0.45703125 v 0.3046874975 c 0.3515625,-0.0117187475 0.8554687,-0.0351562475 1.125,-0.0351562475 0.2578125,0 0.7851562,0.0234375 1.1132812,0.0351562475 V -0.30538281 c -0.65625,0 -0.7734375,0 -0.7734375,-0.45703125 V -2.5905391 c 0,-1.03125 0.7148438,-1.59375 1.3476563,-1.59375 0.6210936,0 0.7382816,0.5390625 0.7382816,1.1015625 v 2.32031254 c 0,0.45703125 -0.117188,0.45703125 -0.7734379,0.45703125 V -6.953125e-4 C 10.075922,-0.01241406 10.591547,-0.03585156 10.861078,-0.03585156 c 0.257813,0 0.773438,0.0234375 1.113281,0.0351562475 V -0.30538281 c -0.667968,0 -0.785156,0 -0.785156,-0.45703125 V -2.5905391 c 0,-1.03125 0.714844,-1.59375 1.347656,-1.59375 0.632813,0 0.738282,0.5390625 0.738282,1.1015625 v 2.32031254 c 0,0.45703125 -0.105469,0.45703125 -0.773438,0.45703125 v 0.3046874975 c 0.351563,-0.0117187475 0.855469,-0.0351562475 1.125,-0.0351562475 0.257813,0 0.773438,0.0234375 1.113281,0.0351562475 V -0.30538281 c -0.515625,0 -0.761718,0 -0.773437,-0.3046875 V -2.5085078 c 0,-0.8554688 0,-1.171875 -0.316406,-1.5234375 -0.128907,-0.1757813 -0.46875,-0.375 -1.042969,-0.375 -0.832031,0 -1.277344,0.5976562 -1.441406,0.984375 -0.140625,-0.8671875 -0.878907,-0.984375 -1.3242191,-0.984375 -0.7265625,0 -1.1953125,0.4335937 -1.4765625,1.0546875 v -1.0546875 l -1.40625,0.1171875 v 0.3046875 c 0.703125,0 0.7851562,0.070312 0.7851562,0.5625 z m 8.3144534,0.9140625 c 0.05859,-1.4882813 0.902344,-1.734375 1.242187,-1.734375 1.019532,0 1.125,1.3476562 1.125,1.734375 z m -0.01172,0.2109375 h 2.789063 c 0.210937,0 0.246093,0 0.246093,-0.2109375 0,-0.984375 -0.539062,-1.9570313 -1.78125,-1.9570313 -1.160156,0 -2.074218,1.03125 -2.074218,2.2734375 0,1.33593754 1.042968,2.29687504 2.191406,2.29687504 1.21875,0 1.664062,-1.1015625 1.664062,-1.28906254 0,-0.1054687 -0.08203,-0.1171875 -0.128906,-0.1171875 -0.09375,0 -0.117187,0.058594 -0.128906,0.140625 -0.351563,1.01953129 -1.253906,1.01953129 -1.347656,1.01953129 -0.503907,0 -0.902344,-0.29296875 -1.125,-0.66796875 C 16.046625,-1.2897578 16.046625,-1.9460078 16.046625,-2.2975703 Z m 9.18457,4.7929687 V 2.0969609 h -0.972656 v -9.1757812 h 0.972656 v -0.3984375 h -1.371093 v 9.9726562 z m 1.327149,-5.9179687 v 2.66015624 c 0,0.45703125 -0.117188,0.45703125 -0.785156,0.45703125 v 0.3046874975 c 0.351562,-0.0117187475 0.855468,-0.0351562475 1.125,-0.0351562475 0.257812,0 0.785156,0.0234375 1.113281,0.0351562475 V -0.30538281 c -0.65625,0 -0.773438,0 -0.773438,-0.45703125 V -2.5905391 c 0,-1.03125 0.714844,-1.59375 1.347657,-1.59375 0.621093,0 0.738281,0.5390625 0.738281,1.1015625 v 2.32031254 c 0,0.45703125 -0.117188,0.45703125 -0.773438,0.45703125 V -6.953125e-4 C 28.890375,-0.01241406 29.406,-0.03585156 29.675531,-0.03585156 c 0.257813,0 0.773438,0.0234375 1.113282,0.0351562475 V -0.30538281 c -0.667969,0 -0.785157,0 -0.785157,-0.45703125 V -2.5905391 c 0,-1.03125 0.714844,-1.59375 1.347657,-1.59375 0.632812,0 0.738281,0.5390625 0.738281,1.1015625 v 2.32031254 c 0,0.45703125 -0.105469,0.45703125 -0.773438,0.45703125 v 0.3046874975 c 0.351563,-0.0117187475 0.855469,-0.0351562475 1.125,-0.0351562475 0.257813,0 0.773438,0.0234375 1.113282,0.0351562475 V -0.30538281 c -0.515625,0 -0.761719,0 -0.773438,-0.3046875 V -2.5085078 c 0,-0.8554688 0,-1.171875 -0.316406,-1.5234375 -0.128906,-0.1757813 -0.46875,-0.375 -1.042969,-0.375 -0.832031,0 -1.277344,0.5976562 -1.441406,0.984375 -0.140625,-0.8671875 -0.878906,-0.984375 -1.324219,-0.984375 -0.726562,0 -1.195312,0.4335937 -1.476562,1.0546875 v -1.0546875 l -1.40625,0.1171875 v 0.3046875 c 0.703125,0 0.785156,0.070312 0.785156,0.5625 z m 9.27539,1.4882812 c 0.222657,0.035156 1.03125,0.1992188 1.03125,0.9140625 0,0.51562504 -0.351562,0.91406254 -1.125,0.91406254 -0.832031,0 -1.195312,-0.57421875 -1.382812,-1.41796874 -0.03516,-0.1289063 -0.03516,-0.1757813 -0.140625,-0.1757813 -0.128906,0 -0.128906,0.070312 -0.128906,0.2578125 v 1.31250004 c 0,0.1640625 0,0.234375 0.105468,0.234375 0.05859,0 0.07031,0 0.257813,-0.19921875 0.01172,-0.01171875 0.01172,-0.03515625 0.199219,-0.22265625 0.433593,0.421875 0.878906,0.421875 1.089843,0.421875 1.148438,0 1.605469,-0.66796875 1.605469,-1.38281254 0,-0.5273437 -0.292969,-0.8203125 -0.421875,-0.9492187 -0.328125,-0.3164063 -0.714844,-0.3984375 -1.136719,-0.46875 -0.550781,-0.1171875 -1.21875,-0.2460938 -1.21875,-0.8203125 0,-0.3515625 0.257813,-0.7617188 1.113282,-0.7617188 1.101562,0 1.148437,0.9023438 1.171875,1.2070313 0,0.09375 0.09375,0.09375 0.117187,0.09375 0.128906,0 0.128906,-0.046875 0.128906,-0.2460938 v -0.9960937 c 0,-0.1757813 0,-0.2460938 -0.117187,-0.2460938 -0.04687,0 -0.07031,0 -0.199219,0.1171875 -0.02344,0.046875 -0.128906,0.1289063 -0.164062,0.1640625 -0.375,-0.28125 -0.785157,-0.28125 -0.9375,-0.28125 -1.21875,0 -1.59375,0.6679688 -1.59375,1.2304688 0,0.3398437 0.164062,0.6210937 0.433593,0.84375 0.316407,0.2578125 0.597657,0.3164062 1.3125,0.4570312 z m 3.436524,-5.5429687 h -1.359375 v 0.3984375 h 0.960937 v 9.1757812 h -0.960937 v 0.3984375 h 1.359375 z m 0,0"
       style="fill:#000000;fill-opacity:1;fill-rule:nonzero;stroke:none"
       aria-label="time[ms]"
       transform="matrix(0,-1.3333333,1.3333333,0,18.817333,138.208)" />
    <path
       id="path45"
       d="M -11.89636,99.10709 H 69.5351 v 28.55977 h -81.43146 z"
       style="fill:#ffffff;fill-opacity:1;fill-rule:nonzero;stroke:#000000;stroke-width:0.3985;stroke-linecap:butt;stroke-linejoin:miter;stroke-miterlimit:10;stroke-dasharray:none;stroke-opacity:1"
       transform="matrix(1.3333333,0,0,-1.3333333,67.792,205.72267)" />
    <path
       id="path46"
       d="m 0,0 h 8.50412 8.50414"
       style="fill:none;stroke:#000000;stroke-width:0.3985;stroke-linecap:butt;stroke-linejoin:miter;stroke-miterlimit:10;stroke-dasharray:none;stroke-opacity:1"
       transform="matrix(1.3333333,0,0,-1.3333333,56.18,46.350667)" />
    <path
       id="path47"
       d="m 10.49667,0 c 0,1.10046 -0.89209,1.99255 -1.99255,1.99255 C 7.40364,1.99255 6.51157,1.10046 6.51157,0 c 0,-1.10046 0.89207,-1.99255 1.99255,-1.99255 1.10046,0 1.99255,0.89209 1.99255,1.99255 z"
       style="fill:#000000;fill-opacity:1;fill-rule:nonzero;stroke:#000000;stroke-width:0.3985;stroke-linecap:butt;stroke-linejoin:miter;stroke-miterlimit:10;stroke-dasharray:none;stroke-opacity:1"
       transform="matrix(1.3333333,0,0,-1.3333333,56.18,46.350667)" />
    <path
       id="path48"
       d="m 0.351875,-6.809625 v 0.3164062 H 0.58625 c 0.7734375,0 0.7851563,0.1054688 0.7851563,0.46875 v 5.25000005 c 0,0.3515625 -0.011719,0.46875 -0.7851563,0.46875 H 0.351875 v 0.3046875 h 3.6445313 c 1.6757812,0 3.046875,-1.47656255 3.046875,-3.35156255 0,-1.8867187 -1.3476563,-3.4570312 -3.046875,-3.4570312 z m 2.3671875,6.50390625 c -0.46875,0 -0.4921875,-0.0703125 -0.4921875,-0.3984375 V -6.0947813 c 0,-0.328125 0.023437,-0.3984375 0.4921875,-0.3984375 h 0.9960938 c 0.6210937,0 1.3007812,0.2109375 1.8164062,0.9257813 0.421875,0.5859375 0.515625,1.4414062 0.515625,2.2148437 0,1.1132813 -0.1875,1.7109375 -0.5507812,2.1914063 -0.1992188,0.26953125 -0.7617188,0.85546875 -1.7695313,0.85546875 z M 9.8264844,-3.6455625 v -2.4492188 c 0,-0.328125 0.011719,-0.3984375 0.4804686,-0.3984375 h 1.242188 c 0.960937,0 1.3125,0.84375 1.3125,1.3710938 0,0.6328125 -0.492188,1.4765625 -1.59375,1.4765625 z m 2.3437496,0.09375 c 0.972657,-0.1992188 1.652344,-0.8320313 1.652344,-1.5703125 0,-0.8671875 -0.914062,-1.6875 -2.203125,-1.6875 H 7.9749219 v 0.3164062 h 0.234375 c 0.7617187,0 0.7851562,0.1054688 0.7851562,0.46875 v 5.25000005 c 0,0.3515625 -0.023437,0.46875 -0.7851562,0.46875 h -0.234375 v 0.3046875 h 3.9023441 c 1.324218,0 2.214843,-0.890625 2.214843,-1.82812505 0,-0.8671875 -0.808593,-1.6054687 -1.921875,-1.7226562 z m -0.609375,3.24609375 h -1.253906 c -0.4687499,0 -0.4804686,-0.0703125 -0.4804686,-0.3984375 V -3.4229063 h 1.8749996 c 0.984375,0 1.394532,0.9257813 1.394532,1.59375 0,0.703125 -0.515625,1.52343755 -1.535157,1.52343755 z m 6.585938,-3.56250005 -1.277344,-0.3046875 c -0.621094,-0.1523437 -1.007812,-0.6914062 -1.007812,-1.265625 0,-0.703125 0.539062,-1.3007812 1.3125,-1.3007812 1.664062,0 1.886718,1.6289062 1.945312,2.0742187 0.01172,0.058594 0.01172,0.1171875 0.117188,0.1171875 0.128906,0 0.128906,-0.046875 0.128906,-0.234375 v -2.0039062 c 0,-0.1640625 0,-0.234375 -0.105469,-0.234375 -0.07031,0 -0.08203,0.011719 -0.152344,0.1289062 l -0.351562,0.5625 c -0.292969,-0.28125 -0.703125,-0.6914062 -1.59375,-0.6914062 -1.101563,0 -1.933594,0.8789062 -1.933594,1.9335937 0,0.8203125 0.527344,1.546875 1.300781,1.8164063 0.105469,0.046875 0.621094,0.1640625 1.3125,0.328125 0.269532,0.070312 0.574219,0.140625 0.84375,0.515625 0.210938,0.2578125 0.316407,0.5859375 0.316407,0.9140625 0,0.703125 -0.503907,1.41796875 -1.335938,1.41796875 -0.292969,0 -1.042969,-0.046875 -1.570312,-0.5390625 C 15.510078,-1.1611875 15.486641,-1.8057188 15.474922,-2.1572813 15.463203,-2.26275 15.381172,-2.26275 15.357734,-2.26275 c -0.128906,0 -0.128906,0.070312 -0.128906,0.2460937 v 1.99218755 c 0,0.17578125 0,0.24609375 0.105469,0.24609375 0.07031,0 0.08203,-0.0234375 0.152344,-0.12890625 0,-0.01171875 0.02344,-0.046875 0.351562,-0.57421875 0.316406,0.33984375 0.949219,0.703125 1.839844,0.703125 1.160156,0 1.957031,-0.984375 1.957031,-2.0742188 0,-0.9960937 -0.65625,-1.8164062 -1.488281,-2.015625 z m 2.619141,0.4570313 c 0,2.0625 1.605468,3.6328125 3.457031,3.6328125 1.628906,0 2.601562,-1.3828125 2.601562,-2.5429688 0,-0.1054687 0,-0.1757812 -0.128906,-0.1757812 -0.105469,0 -0.105469,0.070312 -0.117187,0.1640625 -0.08203,1.4296875 -1.148438,2.23828125 -2.226563,2.23828125 -0.609375,0 -2.566406,-0.33984375 -2.566406,-3.30468755 0,-2.9765625 1.945312,-3.3164062 2.554687,-3.3164062 1.078125,0 1.96875,0.9023437 2.167969,2.3671875 0.02344,0.1289062 0.02344,0.1640625 0.164063,0.1640625 0.152343,0 0.152343,-0.035156 0.152343,-0.234375 v -2.3671875 c 0,-0.1640625 0,-0.234375 -0.105468,-0.234375 -0.03516,0 -0.08203,0 -0.164063,0.1171875 l -0.492187,0.7382812 c -0.375,-0.3632812 -0.878907,-0.8554687 -1.839844,-0.8554687 -1.863281,0 -3.457031,1.5820312 -3.457031,3.609375 z m 10.59082,-3.5273438 c -0.04687,-0.1289062 -0.07031,-0.1992187 -0.222656,-0.1992187 -0.164063,0 -0.1875,0.058594 -0.246094,0.1992187 l -2.0625,5.9648438 c -0.175781,0.50390625 -0.574219,0.65625 -1.113281,0.66796875 v 0.3046875 c 0.234375,-0.01171875 0.65625,-0.03515625 1.019531,-0.03515625 0.304687,0 0.820312,0.0234375 1.148437,0.03515625 v -0.3046875 c -0.503906,0 -0.75,-0.2578125 -0.75,-0.515625 0,-0.0234375 0.01172,-0.12890625 0.02344,-0.140625 l 0.457031,-1.31250005 h 2.460938 l 0.527343,1.52343755 c 0.01172,0.046875 0.02344,0.10546875 0.02344,0.140625 0,0.3046875 -0.550781,0.3046875 -0.820313,0.3046875 v 0.3046875 c 0.351563,-0.03515625 1.054688,-0.03515625 1.429688,-0.03515625 0.433594,0 0.890625,0.01171875 1.300781,0.03515625 v -0.3046875 h -0.175781 c -0.597656,0 -0.738281,-0.0703125 -0.84375,-0.3984375 z m -0.527344,1.125 1.125,3.234375 h -2.238281 z m 6.348633,-0.8671875 c -0.08203,-0.1171875 -0.09375,-0.1289062 -0.28125,-0.1289062 h -1.699219 v 0.3164062 h 0.292969 c 0.140625,0 0.339844,0.011719 0.492187,0.011719 0.234375,0.035156 0.246094,0.046875 0.246094,0.234375 V -1.044 c 0,0.26953125 0,0.73828125 -1.03125,0.73828125 v 0.3046875 c 0.351563,-0.01171875 0.832031,-0.03515625 1.171875,-0.03515625 0.328125,0 0.808594,0.0234375 1.160156,0.03515625 v -0.3046875 c -1.03125,0 -1.03125,-0.46875 -1.03125,-0.73828125 v -5.1796875 c 0.05859,0.046875 0.07031,0.058594 0.105469,0.1171875 l 4.066406,5.9765625 c 0.08203,0.1171875 0.09375,0.12890625 0.164063,0.12890625 0.140625,0 0.140625,-0.0703125 0.140625,-0.2578125 V -5.7549375 c 0,-0.2695313 0,-0.7382813 1.03125,-0.7382813 V -6.809625 c -0.351563,0.011719 -0.84375,0.035156 -1.171875,0.035156 -0.328125,0 -0.820313,-0.023437 -1.160156,-0.035156 v 0.3164062 c 1.019531,0 1.019531,0.46875 1.019531,0.7382813 v 4.2539062 z m 0,0"
       style="fill:#000000;fill-opacity:1;fill-rule:nonzero;stroke:none"
       aria-label="DBSCAN"
       transform="matrix(1.3333333,0,0,1.3333333,89.593333,49.892)" />
    <path
       id="path49"
       d="m 0,0 h 8.50412 8.50414"
       style="fill:none;stroke:#000000;stroke-width:0.3985;stroke-linecap:butt;stroke-linejoin:miter;stroke-miterlimit:10;stroke-dasharray:none;stroke-opacity:1"
       transform="matrix(1.3333333,0,0,-1.3333333,56.18,62.733333)" />
    <path
       id="path50"
       d="m 10.49667,0 c 0,1.10046 -0.89209,1.99255 -1.99255,1.99255 C 7.40364,1.99255 6.51157,1.10046 6.51157,0 c 0,-1.10046 0.89207,-1.99255 1.99255,-1.99255 1.10046,0 1.99255,0.89209 1.99255,1.99255 z"
       style="fill:none;stroke:#000000;stroke-width:0.3985;stroke-linecap:butt;stroke-linejoin:miter;stroke-miterlimit:10;stroke-dasharray:none;stroke-opacity:1"
       transform="matrix(1.3333333,0,0,-1.3333333,56.18,62.733333)" />
    <path
       id="path51"
       d="m 5.9071875,-0.63373438 c 0.1289062,0.22265625 0.5273437,0.62109375 0.6328125,0.62109375 0.09375,0 0.09375,-0.08203125 0.09375,-0.22265625 V -1.9696719 c 0,-0.3867187 0.046875,-0.4453125 0.6914062,-0.4453125 v -0.3046875 c -0.375,0.011719 -0.9140625,0.023437 -1.21875,0.023437 -0.3984375,0 -1.2421875,0 -1.6054687,-0.023437 v 0.3046875 h 0.3164062 c 0.9023438,0 0.9257813,0.1171875 0.9257813,0.4804688 v 0.6328125 c 0,1.12499997 -1.2539063,1.20703122 -1.5351563,1.20703122 -0.65625,0 -2.625,-0.33984375 -2.625,-3.31640622 0,-2.9765625 1.96875,-3.3046875 2.5664063,-3.3046875 1.0664062,0 1.96875,0.9023437 2.1679687,2.3671875 0.023437,0.1289062 0.023437,0.1640625 0.1640625,0.1640625 0.1523438,0 0.1523438,-0.035156 0.1523438,-0.234375 v -2.3671875 c 0,-0.1640625 0,-0.234375 -0.1054688,-0.234375 -0.046875,0 -0.082031,0 -0.1640625,0.1171875 l -0.4921875,0.7382812 c -0.328125,-0.3164062 -0.8554687,-0.8554687 -1.8515625,-0.8554687 -1.8515625,0 -3.4570312,1.5703125 -3.4570312,3.609375 0,2.0507812 1.59375,3.63281247 3.4804687,3.63281247 0.7265625,0 1.5234375,-0.2578125 1.8632813,-0.85546875 z M 9.4814062,-3.3056094 v -1.1015625 l -1.3828125,0.1171875 v 0.3046875 c 0.6914063,0 0.7734375,0.070312 0.7734375,0.5625 v 2.66015627 c 0,0.45703125 -0.1054687,0.45703125 -0.7734375,0.45703125 V -9.21875e-4 C 8.4853125,-0.01264063 8.9540625,-0.03607813 9.2353125,-0.03607813 c 0.3984375,0 0.8671875,0 1.2656245,0.035156255 V -0.30560938 H 10.29 c -0.7382813,0 -0.7617188,-0.1171875 -0.7617188,-0.46875 V -2.3095156 c 0,-0.984375 0.421875,-1.875 1.1835938,-1.875 0.05859,0 0.08203,0 0.105469,0.011719 -0.03516,0.011719 -0.234375,0.1289063 -0.234375,0.3867188 0,0.28125 0.210937,0.4335937 0.433593,0.4335937 0.175782,0 0.421875,-0.1289062 0.421875,-0.4453125 0,-0.3164062 -0.304687,-0.609375 -0.726562,-0.609375 -0.7382813,0 -1.0898438,0.6679688 -1.2304688,1.1015622 z M 12.07125,-6.8095156 v 0.3164062 h 0.234375 c 0.773437,0 0.785156,0.1054688 0.785156,0.46875 v 5.25000002 c 0,0.3515625 -0.01172,0.46875 -0.785156,0.46875 H 12.07125 v 0.304687505 h 3.644531 c 1.675781,0 3.046875,-1.476562525 3.046875,-3.351562525 0,-1.8867187 -1.347656,-3.4570312 -3.046875,-3.4570312 z m 2.367187,6.50390622 c -0.46875,0 -0.492187,-0.0703125 -0.492187,-0.3984375 V -6.0946719 c 0,-0.328125 0.02344,-0.3984375 0.492187,-0.3984375 h 0.996094 c 0.621094,0 1.300781,0.2109375 1.816406,0.9257813 0.421875,0.5859375 0.515625,1.4414062 0.515625,2.2148437 0,1.1132813 -0.1875,1.7109375 -0.550781,2.1914063 -0.199219,0.26953122 -0.761719,0.85546872 -1.769531,0.85546872 z m 7.107422,-3.33984372 v -2.4492188 c 0,-0.328125 0.01172,-0.3984375 0.480469,-0.3984375 h 1.242188 c 0.960937,0 1.3125,0.84375 1.3125,1.3710938 0,0.6328125 -0.492188,1.4765625 -1.59375,1.4765625 z m 2.34375,0.09375 c 0.972657,-0.1992188 1.652344,-0.8320313 1.652344,-1.5703125 0,-0.8671875 -0.914062,-1.6875 -2.203125,-1.6875 h -3.644531 v 0.3164062 h 0.234375 c 0.761719,0 0.785156,0.1054688 0.785156,0.46875 v 5.25000002 c 0,0.3515625 -0.02344,0.46875 -0.785156,0.46875 h -0.234375 v 0.304687505 h 3.902344 c 1.324218,0 2.214843,-0.890625005 2.214843,-1.828125025 0,-0.8671875 -0.808593,-1.6054687 -1.921875,-1.7226562 z m -0.609375,3.24609372 h -1.253906 c -0.46875,0 -0.480469,-0.0703125 -0.480469,-0.3984375 V -3.4227969 h 1.875 c 0.984375,0 1.394532,0.9257813 1.394532,1.59375 0,0.703125 -0.515625,1.52343752 -1.535157,1.52343752 z m 6.585938,-3.56250002 -1.277344,-0.3046875 c -0.621094,-0.1523437 -1.007812,-0.6914062 -1.007812,-1.265625 0,-0.703125 0.539062,-1.3007812 1.3125,-1.3007812 1.664062,0 1.886718,1.6289062 1.945312,2.0742187 0.01172,0.058594 0.01172,0.1171875 0.117188,0.1171875 0.128906,0 0.128906,-0.046875 0.128906,-0.234375 v -2.0039062 c 0,-0.1640625 0,-0.234375 -0.105469,-0.234375 -0.07031,0 -0.08203,0.011719 -0.152344,0.1289062 l -0.351562,0.5625 c -0.292969,-0.28125 -0.703125,-0.6914062 -1.59375,-0.6914062 -1.101563,0 -1.933594,0.8789062 -1.933594,1.9335937 0,0.8203125 0.527344,1.546875 1.300781,1.8164063 0.105469,0.046875 0.621094,0.1640625 1.3125,0.328125 0.269532,0.070312 0.574219,0.140625 0.84375,0.515625 0.210938,0.2578125 0.316407,0.5859375 0.316407,0.9140625 0,0.70312497 -0.503907,1.41796872 -1.335938,1.41796872 -0.292969,0 -1.042969,-0.046875 -1.570312,-0.5390625 -0.585938,-0.52734372 -0.609375,-1.17187502 -0.621094,-1.52343752 -0.01172,-0.1054687 -0.09375,-0.1054687 -0.117188,-0.1054687 -0.128906,0 -0.128906,0.070312 -0.128906,0.2460937 v 1.99218752 c 0,0.17578125 0,0.24609375 0.105469,0.24609375 0.07031,0 0.08203,-0.0234375 0.152344,-0.12890625 0,-0.01171875 0.02344,-0.046875 0.351562,-0.57421875 0.316406,0.33984375 0.949219,0.703125 1.839844,0.703125 1.160156,0 1.957031,-0.984375 1.957031,-2.07421877 0,-0.9960937 -0.65625,-1.8164062 -1.488281,-2.015625 z m 2.61914,0.4570313 c 0,2.0625 1.605469,3.63281247 3.457032,3.63281247 1.628906,0 2.601562,-1.38281247 2.601562,-2.54296877 0,-0.1054687 0,-0.1757812 -0.128906,-0.1757812 -0.105469,0 -0.105469,0.070312 -0.117188,0.1640625 -0.08203,1.42968747 -1.148437,2.23828122 -2.226562,2.23828122 -0.609375,0 -2.566406,-0.33984375 -2.566406,-3.30468752 0,-2.9765625 1.945312,-3.3164062 2.554687,-3.3164062 1.078125,0 1.96875,0.9023437 2.167969,2.3671875 0.02344,0.1289062 0.02344,0.1640625 0.164062,0.1640625 0.152344,0 0.152344,-0.035156 0.152344,-0.234375 v -2.3671875 c 0,-0.1640625 0,-0.234375 -0.105469,-0.234375 -0.03516,0 -0.08203,0 -0.164062,0.1171875 l -0.492188,0.7382812 c -0.375,-0.3632812 -0.878906,-0.8554687 -1.839843,-0.8554687 -1.863282,0 -3.457032,1.5820312 -3.457032,3.609375 z m 10.59375,-3.5273438 c -0.04687,-0.1289062 -0.07031,-0.1992187 -0.222656,-0.1992187 -0.164062,0 -0.1875,0.058594 -0.246094,0.1992187 l -2.0625,5.96484377 c -0.175781,0.50390625 -0.574218,0.65625 -1.113281,0.66796875 v 0.304687505 c 0.234375,-0.011718755 0.65625,-0.035156255 1.019531,-0.035156255 0.304688,0 0.820313,0.0234375 1.148438,0.035156255 V -0.30560938 c -0.503906,0 -0.75,-0.2578125 -0.75,-0.515625 0,-0.0234375 0.01172,-0.12890625 0.02344,-0.140625 l 0.457032,-1.31250002 h 2.460937 l 0.527344,1.52343752 c 0.01172,0.046875 0.02344,0.10546875 0.02344,0.140625 0,0.3046875 -0.550781,0.3046875 -0.820312,0.3046875 v 0.304687505 c 0.351562,-0.035156255 1.054687,-0.035156255 1.429687,-0.035156255 0.433594,0 0.890625,0.01171875 1.300782,0.035156255 V -0.30560938 h -0.175782 c -0.597656,0 -0.738281,-0.0703125 -0.84375,-0.3984375 z m -0.527343,1.125 1.125,3.234375 h -2.238282 z m 6.345703,-0.8671875 c -0.08203,-0.1171875 -0.09375,-0.1289062 -0.28125,-0.1289062 h -1.699219 v 0.3164062 h 0.292969 c 0.140625,0 0.339844,0.011719 0.492187,0.011719 0.234375,0.035156 0.246094,0.046875 0.246094,0.234375 v 5.203125 c 0,0.26953122 0,0.73828122 -1.03125,0.73828122 v 0.304687505 c 0.351563,-0.011718755 0.832031,-0.035156255 1.171875,-0.035156255 0.328125,0 0.808594,0.0234375 1.160156,0.035156255 V -0.30560938 c -1.03125,0 -1.03125,-0.46875 -1.03125,-0.73828122 v -5.1796875 c 0.05859,0.046875 0.07031,0.058594 0.105469,0.1171875 l 4.066406,5.97656247 c 0.08203,0.1171875 0.09375,0.128906255 0.164063,0.128906255 0.140625,0 0.140625,-0.070312505 0.140625,-0.257812505 V -5.7548281 c 0,-0.2695313 0,-0.7382813 1.03125,-0.7382813 v -0.3164062 c -0.351563,0.011719 -0.84375,0.035156 -1.171875,0.035156 -0.328125,0 -0.820313,-0.023437 -1.160156,-0.035156 v 0.3164062 c 1.019531,0 1.019531,0.46875 1.019531,0.7382813 v 4.2539062 z m 0,0"
       style="fill:#000000;fill-opacity:1;fill-rule:nonzero;stroke:none"
       aria-label="GrDBSCAN"
       transform="matrix(1.3333333,0,0,1.3333333,81.78,66.274667)" />
  </g>
</svg>
